<svg xmlns="http://www.w3.org/2000/svg" viewBox="0 0 100 100" fill="currentColor">
 <!-- Icon: "collage" by Mustofa Bayu from the Noun Project (nounproject.com/icon/6753741) — CC BY 3.0 -->
 <g>
  <path d="m57.602 19.543c-0.99609 0.003906-1.8008 0.80859-1.8008 1.8008v57.312c0 0.99219 0.80469 1.8008 1.8008 1.8008h22.617-0.003906c0.99609 0 1.8008-0.80859 1.8008-1.8008v-57.312c0-0.99219-0.80469-1.7969-1.8008-1.8008z"/>
  <path d="m19.781 19.543c-0.99609 0.003906-1.8008 0.80859-1.8008 1.8008v14.52c0 0.99219 0.80469 1.7969 1.8008 1.8008h26.664c0.99219-0.003906 1.7969-0.80859 1.7969-1.8008v-14.52c0-0.99219-0.80469-1.7969-1.7969-1.8008z"/>
  <path d="m19.781 44.527c-0.99609 0.003906-1.8008 0.80859-1.8008 1.8008v32.328c0 0.99219 0.80469 1.8008 1.8008 1.8008h26.664c0.99219 0 1.7969-0.80859 1.7969-1.8008v-32.328c0-0.99219-0.80469-1.7969-1.7969-1.8008z"/>
 </g>
</svg>
