<svg xmlns="http://www.w3.org/2000/svg" viewBox="0 0 100 100" fill="currentColor">
 <!-- Icon: "flow" by Abdul Matic from the Noun Project (nounproject.com/icon/7813263) — CC BY 3.0 -->
 <path d="m60.797 38.812h-45.562c-2.5898 0-4.6875 2.0977-4.6875 4.6875v45.562c0 2.5898 2.0977 4.6875 4.6875 4.6875h45.562c2.5898 0 4.6875-2.0977 4.6875-4.6875v-45.562c0-2.5898-2.0977-4.6875-4.6875-4.6875z"/>
 <path d="m72.219 22.359h-45.125c-2.7031 0-4.8984 2.1875-4.9062 4.8906v8.4375h38.609c2.0703 0 4.0586 0.82422 5.5234 2.2891 1.4648 1.4648 2.2891 3.4531 2.2891 5.5234v33.781h3.6094c2.707-0.007812 4.8984-2.1992 4.9062-4.9062v-45.125c-0.007812-2.7031-2.2031-4.8906-4.9062-4.8906z"/>
 <path d="m84.547 6.25h-45.125c-2.7031 0.007812-4.8906 2.2031-4.8906 4.9062v8.0781h37.688c4.4297 0 8.0234 3.5859 8.0312 8.0156v33.922h4.2969c1.3047 0 2.5547-0.51953 3.4766-1.4414 0.91797-0.92578 1.4336-2.1758 1.4297-3.4805v-45.094c-0.007813-2.707-2.1992-4.8984-4.9062-4.9062z"/>
</svg>
