<svg fill="currentColor" xmlns="http://www.w3.org/2000/svg" version="1.1" viewBox="0 0 100 100">
 <path d="m84.547 6.25h-45.125c-2.7031 0.007812-4.8906 2.2031-4.8906 4.9062v11.203h-7.4375c-2.7031 0-4.8984 2.1875-4.9062 4.8906v11.562h-6.9531c-2.5898 0-4.6875 2.0977-4.6875 4.6875v45.562c0 2.5898 2.0977 4.6875 4.6875 4.6875h45.562c2.5898 0 4.6875-2.0977 4.6875-4.6875v-11.781h6.7344c2.707-0.007812 4.8984-2.1992 4.9062-4.9062v-11.203h7.4219c1.3047 0 2.5547-0.51953 3.4766-1.4414 0.91797-0.92578 1.4336-2.1758 1.4297-3.4805v-45.094c-0.007813-2.707-2.1992-4.8984-4.9062-4.9062zm-23.75 84.375h-45.562c-0.86328 0-1.5625-0.69922-1.5625-1.5625v-45.562c0-0.86328 0.69922-1.5625 1.5625-1.5625h45.562c0.41406 0 0.8125 0.16406 1.1055 0.45703 0.29297 0.29297 0.45703 0.69141 0.45703 1.1055v45.562c0 0.41406-0.16406 0.8125-0.45703 1.1055-0.29297 0.29297-0.69141 0.45703-1.1055 0.45703zm13.203-18.25c0 0.98438-0.79688 1.7812-1.7812 1.7812h-6.7344v-30.656c0-2.5898-2.0977-4.6875-4.6875-4.6875h-35.484v-11.562c0.007812-0.97656 0.80469-1.7656 1.7812-1.7656h45.125c0.97656 0 1.7734 0.78906 1.7812 1.7656zm12.328-16.125c-0.007813 0.97656-0.80469 1.7656-1.7812 1.7656h-7.4219v-30.766c-0.007812-2.7031-2.2031-4.8906-4.9062-4.8906h-34.562v-11.203c0-0.97656 0.78906-1.7734 1.7656-1.7812h45.125c0.98438 0 1.7812 0.79688 1.7812 1.7812z"/>
</svg>