<svg xmlns="http://www.w3.org/2000/svg" viewBox="0 0 100 100" fill="currentColor">
 <!-- Icon: "profile" by Evan Shuster from the Noun Project (nounproject.com/icon/139147) — CC BY 3.0 -->
 <path d="M78,5H21.5c-2.6,0-4.7,2.1-4.7,4.7v80.7c0,2.6,2.1,4.7,4.7,4.7H78c2.6,0,4.7-2.1,4.7-4.7V9.7C82.6,7.1,80.5,5,78,5z   M30.8,42.9c1-2.2,2.7-3.1,4.6-3.6c1.4-0.4,4.1-1,6.4-1.8c1.9-0.6,3.6-1.4,4.2-2.2c0.2-0.3,0.3-0.6,0.5-0.9  c-0.3-0.4-0.9-0.7-1.2-0.9c-2.1-1.5-3-4.2-3.5-6.6c-0.5-2.4-0.9-4.8-0.9-7.3c0-2,0.5-4.2,2.1-5.6c1.9-1.7,4.4-2.3,6.7-2.3  c0,0,0,0,0,0c0,0,0.1,0,0.1,0c0,0,0,0,0,0c0,0,0,0,0.1,0c2.2,0,4.8,0.7,6.7,2.3c1.2,1.1,1.9,2.6,2,4.1c0.3,2.9-0.2,5.9-0.8,8.7  c-0.6,2.4-1.5,5.1-3.5,6.6c-0.3,0.2-0.9,0.6-1.2,0.9c0.1,0.3,0.3,0.6,0.5,0.9c0.5,0.8,2.2,1.5,4.2,2.2c2.4,0.8,5.1,1.4,6.4,1.8  c1.9,0.5,3.6,1.4,4.6,3.6c0.3,0.5,1.4,5.8,1.2,5.8c-4.9,0-40.2,0-40.2,0C29.5,48.7,30.6,43.4,30.8,42.9z M70.4,82.8H29.1  c-0.6,0-1-0.4-1-1s0.4-1,1-1h41.2c0.6,0,1,0.4,1,1S70.9,82.8,70.4,82.8z M70.4,72.8H29.1c-0.6,0-1-0.4-1-1s0.4-1,1-1h41.2  c0.6,0,1,0.4,1,1S70.9,72.8,70.4,72.8z M70.4,62.8H29.1c-0.6,0-1-0.4-1-1s0.4-1,1-1h41.2c0.6,0,1,0.4,1,1S70.9,62.8,70.4,62.8z"/>
</svg>
