<svg xmlns="http://www.w3.org/2000/svg" viewBox="0 0 100 100" fill="currentColor">
 <!-- Icon: "timeline" by Justin Blake from the Noun Project (nounproject.com/icon/3643975) — CC BY 3.0 -->
 <path d="M50,69.41a32.2,32.2,0,1,0-32.2-32.2A32.23,32.23,0,0,0,50,69.41ZM50,11A26.22,26.22,0,1,1,23.78,37.21,26.24,26.24,0,0,1,50,11Z"/><path d="M38.71,41.15H50a3,3,0,0,0,3-3V20.33a3,3,0,1,0-6,0V35.17h-8.3a3,3,0,0,0,0,6Z"/><path d="M79.44,78.87A8.07,8.07,0,0,0,72,83.94H57a8.06,8.06,0,0,0-15,0H27.12a8.07,8.07,0,1,0,0,6H42.05a8.05,8.05,0,0,0,15,0H72a8.07,8.07,0,1,0,7.49-11Z"/>
</svg>
