<svg fill="currentColor" xmlns="http://www.w3.org/2000/svg" version="1.1" viewBox="0 0 100 100">
 <path d="m72.875 68.863c-0.90234 0.88672-2.3516 0.875-3.2383-0.027343-0.88672-0.90234-0.875-2.3516 0.027343-3.2383 2.625-2.5859 4.7422-5.6875 6.1875-9.1406 1.3906-3.3203 2.1602-6.9766 2.1602-10.812 0-7.7344-3.1367-14.738-8.207-19.805-5.0664-5.0703-12.07-8.207-19.805-8.207s-14.738 3.1367-19.805 8.207c-5.0664 5.0664-8.2031 12.07-8.2031 19.805 0 3.8398 0.76953 7.4922 2.1602 10.812 1.4453 3.4531 3.5625 6.5547 6.1875 9.1406 0.89844 0.88672 0.91406 2.3359 0.027344 3.2383-0.88672 0.89844-2.3359 0.91016-3.2383 0.027343-3.0586-3.0156-5.5273-6.6289-7.2109-10.648-1.6211-3.8711-2.5156-8.1211-2.5156-12.574 0-9.0039 3.6523-17.152 9.5508-23.055 5.9023-5.9023 14.051-9.5508 23.055-9.5508 9.0039 0 17.152 3.6523 23.055 9.5508 5.9023 5.9023 9.5508 14.051 9.5508 23.055 0 4.4492-0.89844 8.6953-2.5156 12.57-1.6836 4.0234-4.1523 7.6367-7.2109 10.648zm-60.859 18.098c-3.043 0-5.7969-1.2344-7.7891-3.2266-1.9961-1.9961-3.2266-4.7461-3.2266-7.7891 0-3.043 1.2344-5.793 3.2266-7.7891 1.9922-1.9961 4.7461-3.2266 7.7891-3.2266 3.0391 0 5.793 1.2344 7.7891 3.2266 1.4766 1.4766 2.5352 3.3711 2.9844 5.4883h16.438c0.44922-2.1211 1.5078-4.0156 2.9844-5.4883 1.9961-1.9961 4.7461-3.2266 7.7891-3.2266s5.7969 1.2344 7.7891 3.2266c1.4766 1.4766 2.5391 3.3711 2.9844 5.4883h16.438c0.44922-2.1211 1.5078-4.0156 2.9844-5.4883 1.9961-1.9961 4.75-3.2266 7.7891-3.2266 3.043 0 5.7969 1.2344 7.7891 3.2266 1.9961 1.9961 3.2266 4.7461 3.2266 7.7891 0 3.043-1.2344 5.793-3.2266 7.7891-1.9922 1.9922-4.7461 3.2266-7.7891 3.2266-3.0391 0-5.793-1.2344-7.7891-3.2266-1.4766-1.4805-2.5352-3.3711-2.9844-5.4922h-16.438c-0.44922 2.1211-1.5078 4.0156-2.9844 5.4922-1.9922 1.9922-4.7461 3.2266-7.7891 3.2266s-5.793-1.2344-7.7891-3.2266c-1.4766-1.4805-2.5352-3.3711-2.9844-5.4922h-16.438c-0.44922 2.1211-1.5078 4.0156-2.9844 5.4922-1.9961 1.9922-4.75 3.2266-7.7891 3.2266zm-4.543-6.4727c1.1602 1.1602 2.7656 1.8828 4.543 1.8828 1.7734 0 3.3789-0.71875 4.5391-1.8828 1.1602-1.1602 1.8828-2.7656 1.8828-4.5391 0-1.7734-0.71875-3.3789-1.8828-4.5391-1.1602-1.1602-2.7656-1.8828-4.5391-1.8828s-3.3789 0.71875-4.543 1.8828c-1.1602 1.1602-1.8828 2.7656-1.8828 4.5391 0 1.7734 0.71875 3.3789 1.8828 4.5391zm80.512 1.8828c1.7734 0 3.3789-0.71875 4.5391-1.8828 1.1602-1.1602 1.8828-2.7656 1.8828-4.5391 0-1.7734-0.71875-3.3789-1.8828-4.5391-1.1602-1.1602-2.7656-1.8828-4.5391-1.8828s-3.3789 0.71875-4.5391 1.8828c-1.1602 1.1602-1.8828 2.7656-1.8828 4.5391 0 1.7734 0.71875 3.3789 1.8828 4.5391 1.1602 1.1602 2.7656 1.8828 4.5391 1.8828zm-37.988 0c1.7734 0 3.3789-0.71875 4.5391-1.8828 1.1602-1.1602 1.8828-2.7656 1.8828-4.5391 0-1.7734-0.71875-3.3789-1.8828-4.5391-1.1602-1.1602-2.7656-1.8828-4.5391-1.8828-1.7734 0-3.3789 0.71875-4.5391 1.8828-1.1602 1.1602-1.8828 2.7656-1.8828 4.5391 0 1.7734 0.71875 3.3789 1.8828 4.5391 1.1602 1.1602 2.7656 1.8828 4.5391 1.8828zm-11.387-35.434c-1.2695 0-2.2969-1.0273-2.2969-2.2969s1.0273-2.2969 2.2969-2.2969h9.0898v-15.047c0-1.2695 1.0273-2.2969 2.2969-2.2969 1.2695 0 2.2969 1.0273 2.2969 2.2969v17.344c0 1.2695-1.0273 2.2969-2.2969 2.2969z"/>
</svg>